<?xml version="1.0" encoding="utf-8"?>
<!-- Generator: Adobe Illustrator 16.0.0, SVG Export Plug-In . SVG Version: 6.00 Build 0)  -->
<!DOCTYPE svg PUBLIC "-//W3C//DTD SVG 1.1//EN" "http://www.w3.org/Graphics/SVG/1.1/DTD/svg11.dtd">
<svg version="1.1" id="Ebene_1" xmlns="http://www.w3.org/2000/svg" xmlns:xlink="http://www.w3.org/1999/xlink" x="0px" y="0px"
	 width="500px" height="500px" viewBox="0 0 500 500" enable-background="new 0 0 500 500" xml:space="preserve">
<path fill="#0071BC" d="M399,409c0,6.627-5.373,12-12,12H111c-6.627,0-12-5.373-12-12V133c0-6.627,5.373-12,12-12h276
	c6.627,0,12,5.373,12,12V409z"/>
<text transform="matrix(1 0 0 1 158.3442 328.3965)" fill="#FFFFFF" font-family="'Raleway-Regular'" font-size="194.9079">m</text>
<path fill="none" stroke="#FFFFFF" stroke-width="4" stroke-miterlimit="10" d="M376,388.788c0,4.535-3.677,8.212-8.212,8.212
	H131.212c-4.535,0-8.212-3.677-8.212-8.212V152.212c0-4.535,3.677-8.212,8.212-8.212h236.576c4.535,0,8.212,3.677,8.212,8.212
	V388.788z"/>
</svg>
